<svg width="64" height="64" viewBox="0 0 64 64" fill="none" xmlns="http://www.w3.org/2000/svg">
<path d="M62.199 39.556C58.005 56.38 40.964 66.618 24.138 62.423C7.32 58.228 -2.919 41.188 1.277 24.365C5.469 7.53902 22.509 -2.70098 39.33 1.49402C56.155 5.68902 66.393 22.732 62.199 39.556Z" fill="#F7931A"/>
<path d="M45.584 27.485C46.208 23.306 43.027 21.06 38.676 19.561L40.087 13.9L36.64 13.041L35.266 18.553C34.361 18.327 33.431 18.114 32.506 17.903L33.89 12.355L30.446 11.496L29.034 17.155C28.284 16.984 27.548 16.815 26.834 16.638L26.838 16.62L22.086 15.433L21.169 19.113C21.169 19.113 23.725 19.699 23.672 19.735C25.068 20.083 25.321 21.007 25.277 21.739L23.665 28.212L21.411 37.246C21.24 37.67 20.807 38.306 19.832 38.065C19.866 38.115 17.327 37.44 17.327 37.44L15.616 41.385L20.101 42.503C20.935 42.712 21.753 42.931 22.556 43.137L21.13 48.863L24.572 49.722L25.985 44.057C26.924 44.312 27.837 44.548 28.73 44.769L27.323 50.407L30.769 51.266L32.195 45.551C38.07 46.663 42.49 46.214 44.347 40.901C45.846 36.622 44.273 34.154 41.182 32.544C43.435 32.025 45.131 30.544 45.584 27.485ZM37.711 38.525C36.645 42.804 29.442 40.492 27.105 39.911L28.997 32.326C31.333 32.908 38.822 34.063 37.711 38.525ZM38.776 27.423C37.804 31.315 31.808 29.338 29.862 28.853L31.577 21.974C33.523 22.459 39.788 23.363 38.776 27.423Z" fill="white"/>
</svg>
