<svg width="64" height="64" viewBox="0 0 64 64" fill="none" xmlns="http://www.w3.org/2000/svg">
<path d="M32.112 0.554993C49.455 0.554993 63.516 14.616 63.516 31.959C63.516 49.303 49.454 63.363 32.112 63.363C14.77 63.363 0.708008 49.306 0.708008 31.959C0.708008 14.612 14.767 0.554993 32.112 0.554993Z" fill="#53AE94"/>
<path d="M35.988 27.775V23.103H46.671V15.985H17.58V23.103H28.264V27.771C19.581 28.17 13.052 29.89 13.052 31.95C13.052 34.01 19.584 35.73 28.264 36.131V51.095H35.989V36.13C44.657 35.73 51.172 34.012 51.172 31.953C51.172 29.895 44.656 28.176 35.989 27.776M35.991 34.862V34.858C35.773 34.872 34.653 34.939 32.16 34.939C30.166 34.939 28.764 34.882 28.27 34.857V34.863C20.598 34.523 14.872 33.187 14.872 31.589C14.872 29.991 20.599 28.657 28.27 28.316V33.532C28.773 33.567 30.21 33.651 32.193 33.651C34.575 33.651 35.773 33.552 35.993 33.532V28.316C43.649 28.657 49.363 29.994 49.363 31.587C49.363 33.18 43.647 34.518 35.993 34.859" fill="white"/>
</svg>
