<svg width="62" height="62" viewBox="0 0 62 62" fill="none" xmlns="http://www.w3.org/2000/svg">
<path d="M31.196 61.473C48.0484 61.473 61.71 47.8114 61.71 30.959C61.71 14.1066 48.0484 0.445007 31.196 0.445007C14.3436 0.445007 0.682007 14.1066 0.682007 30.959C0.682007 47.8114 14.3436 61.473 31.196 61.473Z" fill="#627EEA"/>
<path d="M32.145 8.07401V24.99L46.4429 31.379L32.145 8.07401Z" fill="white" fill-opacity="0.602"/>
<path d="M32.145 8.07401L17.845 31.379L32.145 24.99V8.07401Z" fill="white"/>
<path d="M32.145 42.341V53.835L46.452 34.041L32.145 42.341Z" fill="white" fill-opacity="0.602"/>
<path d="M32.145 53.835V42.339L17.845 34.041L32.145 53.835Z" fill="white"/>
<path d="M32.145 39.68L46.4429 31.378L32.145 24.993V39.68Z" fill="white" fill-opacity="0.2"/>
<path d="M17.8459 31.379L32.146 39.681V24.994L17.8459 31.379Z" fill="white" fill-opacity="0.602"/>
</svg>
