<svg width="64" height="64" viewBox="0 0 64 64" fill="none" xmlns="http://www.w3.org/2000/svg">
<path d="M31.654 63.363C48.9979 63.363 63.058 49.3029 63.058 31.959C63.058 14.615 48.9979 0.554993 31.654 0.554993C14.31 0.554993 0.25 14.615 0.25 31.959C0.25 49.3029 14.31 63.363 31.654 63.363Z" fill="url(#paint0_linear_3_39)"/>
<path d="M16.78 41.05C17.046 40.784 17.412 40.629 17.799 40.629H52.965C53.608 40.629 53.929 41.404 53.475 41.859L46.528 48.806C46.262 49.072 45.896 49.227 45.509 49.227H10.344C9.70096 49.227 9.37997 48.451 9.83397 47.997L16.78 41.05Z" fill="white"/>
<path d="M16.78 15.113C17.057 14.847 17.423 14.692 17.799 14.692H52.965C53.608 14.692 53.929 15.468 53.475 15.922L46.528 22.869C46.262 23.135 45.896 23.29 45.509 23.29H10.344C9.70096 23.29 9.37997 22.515 9.83397 22.06L16.78 15.113Z" fill="white"/>
<path d="M46.528 27.998C46.262 27.732 45.896 27.577 45.509 27.577H10.344C9.70096 27.577 9.37997 28.353 9.83397 28.807L16.781 35.754C17.047 36.02 17.413 36.175 17.8 36.175H52.966C53.609 36.175 53.93 35.399 53.476 34.945L46.528 27.998Z" fill="white"/>
<defs>
<linearGradient id="paint0_linear_3_39" x1="59.1804" y1="3.88919" x2="8.12731" y2="55.9501" gradientUnits="userSpaceOnUse">
<stop stop-color="#00FFA3"/>
<stop offset="1" stop-color="#DC1FFF"/>
</linearGradient>
</defs>
</svg>
